<svg width="17" height="17" viewBox="0 0 17 17" fill="none" xmlns="http://www.w3.org/2000/svg">
<path d="M7.19782 1.04065C5.99171 1.03261 4.8103 1.38241 3.80298 2.0458C2.79567 2.70919 2.0077 3.65639 1.53871 4.76762C1.06973 5.87884 0.940788 7.10418 1.1682 8.28869C1.39562 9.47319 1.96917 10.5637 2.81633 11.4222C3.6635 12.2807 4.74622 12.8688 5.92759 13.112C7.10896 13.3551 8.33591 13.2426 9.45328 12.7884C10.5707 12.3343 11.5283 11.559 12.205 10.5606C12.8818 9.56227 13.2473 8.38562 13.2554 7.17951C13.266 5.5622 12.6339 4.00687 11.4979 2.85564C10.3619 1.7044 8.81513 1.05154 7.19782 1.04065Z" stroke="white" stroke-width="1.5" stroke-miterlimit="10"/>
<path d="M11.6768 11.7188L15.9073 16.0061" stroke="white" stroke-width="1.5" stroke-miterlimit="10" stroke-linecap="round"/>
</svg>
