<svg width="12" height="12" viewBox="0 0 12 12" fill="none" xmlns="http://www.w3.org/2000/svg">
<path d="M1.48367 2.9671C2.30301 2.9671 2.96722 2.30289 2.96722 1.48355C2.96722 0.664208 2.30301 0 1.48367 0C0.66433 0 0.00012207 0.664208 0.00012207 1.48355C0.00012207 2.30289 0.66433 2.9671 1.48367 2.9671Z" fill="white"/>
<path d="M2.71984 3.95703H0.247258C0.110772 3.95703 0 4.0678 0 4.20429V11.622C0 11.7585 0.110772 11.8693 0.247258 11.8693H2.71984C2.85633 11.8693 2.9671 11.7585 2.9671 11.622V4.20429C2.9671 4.0678 2.85633 3.95703 2.71984 3.95703Z" fill="white"/>
<path d="M10.088 3.54836C9.03126 3.18637 7.70942 3.50434 6.91671 4.07452C6.88951 3.9682 6.79258 3.88908 6.67736 3.88908H4.20478C4.06829 3.88908 3.95752 3.99985 3.95752 4.13634V11.5541C3.95752 11.6906 4.06829 11.8013 4.20478 11.8013H6.67736C6.81385 11.8013 6.92462 11.6906 6.92462 11.5541V6.22319C7.32419 5.87901 7.83898 5.76923 8.26031 5.94824C8.66878 6.12083 8.90269 6.54216 8.90269 7.10343V11.5541C8.90269 11.6906 9.01346 11.8013 9.14994 11.8013H11.6225C11.759 11.8013 11.8698 11.6906 11.8698 11.5541V6.60546C11.8416 4.57349 10.8857 3.82133 10.088 3.54836Z" fill="white"/>
</svg>
