<svg width="14" height="10" viewBox="0 0 14 10" fill="none" xmlns="http://www.w3.org/2000/svg">
<path fill-rule="evenodd" clip-rule="evenodd" d="M0.25 5.00082C0.25 4.80191 0.329018 4.61115 0.46967 4.47049C0.610322 4.32984 0.801088 4.25082 1 4.25082H11.19L8.47 1.53082C8.33752 1.38865 8.2654 1.2006 8.26882 1.0063C8.27225 0.811999 8.35097 0.626614 8.48838 0.489201C8.62579 0.351788 8.81118 0.273076 9.00548 0.269648C9.19978 0.26622 9.38783 0.338343 9.53 0.470823L13.53 4.47082C13.6705 4.61145 13.7493 4.80207 13.7493 5.00082C13.7493 5.19957 13.6705 5.3902 13.53 5.53082L9.53 9.53082C9.46134 9.60451 9.37854 9.66361 9.28654 9.7046C9.19454 9.7456 9.09523 9.76764 8.99452 9.76941C8.89382 9.77119 8.79379 9.75267 8.7004 9.71495C8.60701 9.67723 8.52218 9.62108 8.45096 9.54986C8.37974 9.47864 8.3236 9.39381 8.28588 9.30042C8.24816 9.20703 8.22963 9.107 8.23141 9.0063C8.23318 8.9056 8.25523 8.80628 8.29622 8.71428C8.33721 8.62229 8.39631 8.53948 8.47 8.47082L11.19 5.75082H1C0.801088 5.75082 0.610322 5.6718 0.46967 5.53115C0.329018 5.3905 0.25 5.19974 0.25 5.00082Z" fill="#0099FF"/>
</svg>
